<svg id="Group_34" data-name="Group 34" xmlns="http://www.w3.org/2000/svg" width="38.555" height="158.33" viewBox="0 0 38.555 158.33">
  <path id="Path_16" data-name="Path 16" d="M6768.56,308.475s-14.227,5.852-19.657,10.979-13.974,7.744-13.974,7.744,8.609,4.778,10.552,12.03c5.493-3.21,23.039-4.607,23.365-4.67S6768.56,308.475,6768.56,308.475Z" transform="translate(-6734.93 -305.568)" fill="#ffcb70"/>
  <rect id="Rectangle_21" data-name="Rectangle 21" width="1.267" height="126.664" transform="translate(32.729 30.399)" fill="#ffcb70"/>
  <path id="Subtraction_1" data-name="Subtraction 1" d="M5.32,0C2.386,0,0,.8,0,1.773a.826.826,0,0,0,.306.594,2.863,2.863,0,0,0,.848.509,9.934,9.934,0,0,0,2.9.62V.76h2.28V3.515c2.5-.16,4.307-.893,4.307-1.741C10.64.8,8.253,0,5.32,0Z" transform="translate(38.555 158.33) rotate(180)" fill="#ffcb70"/>
  <rect id="Rectangle_22" data-name="Rectangle 22" width="2.28" height="1.9" transform="translate(32.222)" fill="#ffcb70"/>
</svg>
