<svg xmlns="http://www.w3.org/2000/svg" width="28.016" height="28.01" viewBox="0 0 28.016 28.01"><path d="M14.006-19.187a7.17,7.17,0,0,0-7.181,7.181,7.17,7.17,0,0,0,7.181,7.181,7.17,7.17,0,0,0,7.181-7.181A7.17,7.17,0,0,0,14.006-19.187Zm0,11.85a4.677,4.677,0,0,1-4.669-4.669,4.673,4.673,0,0,1,4.669-4.669,4.673,4.673,0,0,1,4.669,4.669A4.677,4.677,0,0,1,14.006-7.338Zm9.15-12.144a1.675,1.675,0,0,0-1.675-1.675,1.675,1.675,0,0,0-1.675,1.675,1.671,1.671,0,0,0,1.675,1.675A1.671,1.671,0,0,0,23.156-19.481Zm4.756,1.7A8.289,8.289,0,0,0,25.65-23.65a8.344,8.344,0,0,0-5.869-2.262c-2.312-.131-9.244-.131-11.556,0a8.331,8.331,0,0,0-5.869,2.256A8.316,8.316,0,0,0,.094-17.787c-.131,2.312-.131,9.244,0,11.556A8.289,8.289,0,0,0,2.356-.362,8.354,8.354,0,0,0,8.225,1.9c2.312.131,9.244.131,11.556,0A8.289,8.289,0,0,0,25.65-.362a8.344,8.344,0,0,0,2.262-5.869C28.044-8.544,28.044-15.469,27.912-17.781ZM24.925-3.75a4.727,4.727,0,0,1-2.662,2.662c-1.844.731-6.219.562-8.256.562S7.588-.362,5.75-1.088A4.727,4.727,0,0,1,3.088-3.75c-.731-1.844-.562-6.219-.562-8.256s-.163-6.419.562-8.256A4.727,4.727,0,0,1,5.75-22.925c1.844-.731,6.219-.562,8.256-.562s6.419-.163,8.256.563a4.727,4.727,0,0,1,2.662,2.662c.731,1.844.562,6.219.562,8.256S25.656-5.588,24.925-3.75Z" transform="translate(0.005 26.011)" fill="#c64e3f"/></svg>